<?xml version="1.0" standalone="no"?>
<!DOCTYPE svg PUBLIC "-//W3C//DTD SVG 20010904//EN"
 "http://www.w3.org/TR/2001/REC-SVG-20010904/DTD/svg10.dtd">
<svg version="1.0" xmlns="http://www.w3.org/2000/svg"
 width="1280.000000pt" height="720.000000pt" viewBox="0 0 1280.000000 720.000000"
 preserveAspectRatio="xMidYMid meet">

<g transform="translate(0.000000,720.000000) scale(0.100000,-0.100000)"
fill="#000000" stroke="none">
<path d="M2491 5030 c29 -38 36 -122 16 -170 -9 -20 -32 -51 -51 -70 -20 -19
-36 -38 -36 -42 0 -3 33 -18 73 -33 119 -44 114 -39 174 -175 30 -69 74 -165
97 -215 135 -284 158 -344 154 -400 -3 -58 2 -65 48 -65 28 0 56 47 56 95 0
20 -34 106 -85 216 -47 101 -108 236 -136 299 -58 129 -76 152 -143 186 -27
13 -48 30 -49 37 -3 30 3 77 17 144 16 71 15 74 -6 119 -24 48 -95 104 -132
104 -17 0 -17 -2 3 -30z"/>
<path d="M2308 4783 c7 -3 16 -2 19 1 4 3 -2 6 -13 5 -11 0 -14 -3 -6 -6z"/>
<path d="M2356 4735 c4 -8 8 -15 10 -15 2 0 4 7 4 15 0 8 -4 15 -10 15 -5 0
-7 -7 -4 -15z"/>
<path d="M2085 4440 c-3 -5 -1 -10 4 -10 6 0 11 5 11 10 0 6 -2 10 -4 10 -3 0
-8 -4 -11 -10z"/>
<path d="M2022 4245 c-116 -175 -212 -336 -207 -345 7 -11 70 -21 88 -14 17 6
32 27 141 201 l76 122 0 81 c0 44 -3 80 -8 80 -4 0 -44 -56 -90 -125z"/>
<path d="M2528 4329 c-15 -102 -8 -300 16 -449 14 -85 43 -282 66 -438 22
-156 43 -295 46 -309 5 -18 3 -24 -5 -19 -7 4 -11 0 -11 -12 0 -33 -89 -43
-141 -16 -29 14 -31 14 -27 -3 3 -14 17 -20 68 -25 144 -17 186 -25 164 -33
-17 -5 -23 -18 -28 -53 -12 -88 -19 -1065 -8 -1102 7 -25 10 -28 11 -13 1 15
7 21 21 20 21 -1 34 -22 24 -40 -5 -9 -4 -9 6 0 7 7 11 27 8 51 -2 25 1 38 7
35 6 -2 10 -20 8 -41 -1 -20 0 -28 3 -18 5 14 8 16 14 6 5 -8 10 -2 15 20 5
24 10 29 16 19 6 -10 9 -11 9 -1 0 6 5 12 11 12 5 0 7 -5 3 -11 -4 -8 3 -9 26
-4 17 4 41 8 53 10 114 14 135 95 139 537 1 166 1 339 0 383 -2 80 -18 155
-34 155 -4 0 -8 7 -8 15 0 20 -28 25 -152 28 -60 1 -108 5 -108 10 0 4 13 7
29 7 17 0 32 3 34 8 2 4 -8 61 -24 127 -16 66 -49 253 -74 415 -25 162 -48
306 -52 320 -3 14 -7 81 -7 150 -2 110 -5 130 -25 170 -32 61 -72 120 -81 120
-4 0 -10 -14 -12 -31z"/>
<path d="M2705 4170 c3 -5 8 -10 11 -10 2 0 4 5 4 10 0 6 -5 10 -11 10 -5 0
-7 -4 -4 -10z"/>
<path d="M2302 3860 c-10 -30 -100 -408 -122 -510 -20 -93 -50 -218 -56 -233
-6 -16 -22 -22 -51 -18 -7 1 -13 -3 -13 -9 0 -16 -73 -12 -99 6 -28 20 -51 5
-25 -17 16 -13 54 -18 299 -34 98 -6 99 -6 78 12 -23 20 -23 11 -3 227 6 59
18 138 26 175 31 133 28 264 -11 396 l-12 39 -11 -34z"/>
<path d="M1948 3133 c6 -2 18 -2 25 0 6 3 1 5 -13 5 -14 0 -19 -2 -12 -5z"/>
<path d="M2012 3119 c-10 -16 -10 -20 3 -25 9 -4 19 -4 22 0 4 3 -2 6 -13 7
-15 1 -14 2 5 8 20 5 21 8 9 18 -11 10 -16 8 -26 -8z"/>
<path d="M2597 3121 c-3 -14 0 -21 9 -21 16 0 18 9 5 28 -6 10 -10 9 -14 -7z"/>
<path d="M6549 3054 c-11 -14 -10 -19 9 -35 20 -16 45 -18 245 -18 122 0 446
-4 719 -7 395 -6 500 -5 512 6 9 7 22 10 31 7 20 -8 30 12 14 28 -11 10 -153
16 -664 24 -857 15 -849 15 -866 -5z"/>
<path d="M10075 3060 c-4 -7 -11 -46 -16 -88 -10 -86 -29 -111 -61 -79 -10 10
-16 11 -24 3 -13 -15 -18 -696 -4 -716 8 -13 13 -13 31 -2 32 20 39 2 39 -110
0 -82 3 -99 18 -106 9 -5 22 -7 29 -5 6 2 24 -4 39 -14 35 -23 68 -27 110 -13
26 9 38 9 49 0 12 -10 90 -8 101 3 5 5 13 282 17 645 3 178 1 222 -10 222 -17
0 -17 15 2 30 8 7 15 22 15 35 0 27 -24 27 -70 -2 -38 -24 -80 -21 -55 4 8 8
15 25 15 39 0 14 6 24 14 24 8 0 17 7 20 16 5 13 1 15 -20 10 -26 -7 -26 -6
-22 39 2 33 0 44 -9 41 -7 -3 -19 1 -27 9 -19 19 -171 31 -181 15z m255 -284
c0 -3 -4 -8 -10 -11 -5 -3 -10 -1 -10 4 0 6 5 11 10 11 6 0 10 -2 10 -4z m-20
-756 c0 -5 -2 -10 -4 -10 -3 0 -8 5 -11 10 -3 6 -1 10 4 10 6 0 11 -4 11 -10z"/>
<path d="M4595 3049 c-4 -6 -13 -8 -21 -5 -8 3 -14 1 -14 -4 0 -6 -7 -10 -15
-10 -13 0 -15 -64 -15 -515 0 -356 3 -515 11 -515 5 0 8 -4 5 -9 -3 -4 6 -13
19 -19 14 -7 25 -7 25 -2 0 5 16 2 35 -6 25 -10 41 -12 54 -4 23 12 81 83 81
99 0 6 5 11 12 11 6 0 9 2 6 5 -3 3 0 22 8 43 16 47 20 732 4 791 -13 51 -48
101 -89 128 -35 24 -95 31 -106 12z"/>
<path d="M6360 2505 c0 -505 1 -555 16 -547 9 5 49 42 90 83 121 119 139 174
143 437 1 74 5 140 8 148 3 8 1 14 -3 14 -5 0 -9 21 -8 47 2 121 -44 238 -120
303 -38 33 -98 70 -113 70 -10 0 -13 -118 -13 -555z"/>
<path d="M10385 2990 c-3 -5 -1 -10 4 -10 6 0 11 5 11 10 0 6 -2 10 -4 10 -3
0 -8 -4 -11 -10z"/>
<path d="M8024 2939 c-9 -15 5 -25 44 -32 22 -5 32 -3 32 6 0 31 -60 52 -76
26z"/>
<path d="M8127 2740 c-3 -19 -9 -80 -14 -135 l-7 -100 -6 73 c-4 48 -11 77
-21 82 -17 11 -15 21 -34 -129 -9 -76 -12 -128 -6 -135 7 -8 -15 -11 -79 -10
-147 1 -179 -24 -199 -157 -6 -35 -14 -77 -19 -94 -5 -16 -8 -41 -7 -55 1 -22
7 -26 51 -31 51 -6 112 -34 151 -68 16 -13 21 -26 17 -45 -2 -15 1 -36 7 -47
9 -17 7 -25 -10 -43 -12 -12 -21 -30 -21 -39 0 -9 -4 -19 -10 -22 -5 -3 -7
-18 -4 -33 4 -19 0 -32 -10 -41 -11 -9 -13 -19 -5 -37 11 -29 2 -74 -15 -74
-6 0 -5 -4 3 -9 7 -5 10 -14 7 -20 -5 -7 1 -11 15 -11 22 0 22 0 3 -14 -10 -8
-19 -18 -19 -23 -1 -4 -7 -18 -14 -31 -7 -13 -10 -30 -7 -38 3 -8 1 -14 -4
-14 -5 0 -7 -7 -4 -15 4 -8 -1 -17 -10 -21 -9 -3 -14 -10 -11 -14 8 -13 -6
-40 -21 -40 -8 0 -14 -6 -14 -14 0 -8 -10 -23 -23 -33 -25 -20 -38 -93 -17
-93 10 0 9 -4 0 -15 -10 -12 -10 -15 4 -15 9 0 16 -4 16 -10 0 -5 -4 -10 -10
-10 -5 0 -10 -7 -10 -15 0 -8 -5 -15 -12 -15 -6 0 -8 -3 -5 -7 4 -3 -1 -15
-10 -25 -14 -15 -15 -21 -4 -27 10 -7 8 -12 -8 -23 -14 -10 -19 -21 -15 -32 5
-12 2 -15 -10 -10 -19 7 -20 0 -5 -27 7 -15 7 -24 0 -33 -6 -8 -13 -33 -15
-56 -2 -23 -10 -46 -17 -51 -11 -7 -11 -9 -1 -9 10 0 10 -5 2 -20 -7 -14 -7
-20 0 -20 5 0 10 -4 10 -10 0 -5 -7 -10 -15 -10 -20 0 -36 -41 -23 -57 7 -8 2
-20 -16 -38 -15 -15 -24 -30 -21 -35 3 -4 -4 -6 -14 -3 -16 4 -19 1 -15 -14 4
-14 -3 -25 -20 -37 -14 -9 -26 -25 -26 -36 0 -11 -9 -24 -20 -30 -25 -13 -26
-27 -2 -33 12 -3 11 -5 -6 -6 -18 -1 -21 -4 -14 -17 5 -9 7 -26 4 -36 -3 -11
1 -24 9 -29 10 -6 10 -9 2 -9 -7 0 -13 -9 -13 -21 0 -11 -5 -29 -10 -39 -7
-13 -7 -21 0 -25 5 -3 10 -12 10 -20 0 -18 -40 -31 -50 -15 -4 7 -10 8 -13 3
-3 -5 -2 -15 4 -23 5 -8 9 -23 9 -33 0 -14 -5 -17 -20 -12 -22 7 -26 -5 -8
-23 14 -14 -16 -52 -42 -52 -32 0 -44 -26 -29 -62 8 -18 12 -41 11 -50 -3 -17
25 -18 482 -18 l486 0 37 36 c20 20 39 31 41 25 2 -6 7 -9 12 -6 4 3 13 -2 20
-10 10 -12 10 -18 1 -29 -11 -13 14 -15 176 -16 l189 -1 -3 73 c-4 120 -11
143 -52 176 -20 16 -46 32 -57 36 -27 8 -54 33 -77 69 -10 15 -24 27 -32 27
-10 0 -15 10 -15 29 0 21 -6 32 -19 36 -11 3 -29 21 -39 40 -12 20 -30 35 -44
37 -15 2 -22 9 -20 21 2 12 -4 17 -19 17 -17 0 -19 3 -10 14 8 10 8 20 -4 42
-8 15 -12 38 -9 50 3 12 1 25 -5 28 -6 4 -11 20 -11 35 0 29 -13 78 -33 121
-16 34 -96 109 -126 116 l-24 7 7 261 c10 370 8 1082 -4 1202 -10 104 -30 215
-54 294 l-13 44 -6 -34z m-549 -2235 c-3 -3 -9 2 -12 12 -6 14 -5 15 5 6 7 -7
10 -15 7 -18z m899 -487 c-3 -8 -6 -5 -6 6 -1 11 2 17 5 13 3 -3 4 -12 1 -19z"/>
<path d="M7941 2484 c-13 -69 -13 -74 -2 -74 9 0 26 119 18 126 -2 3 -9 -21
-16 -52z"/>
<path d="M8499 2218 c-1 -51 -2 -118 -3 -148 -3 -110 17 -148 88 -166 l29 -7
-22 22 c-24 24 -25 29 -11 66 8 22 8 26 -3 22 -10 -4 -13 7 -12 42 0 35 3 45
15 43 12 -3 13 -1 3 9 -7 7 -13 19 -13 26 0 8 -7 30 -16 51 -9 20 -16 49 -15
63 1 14 -5 31 -13 38 -9 7 -13 17 -10 22 3 5 0 9 -5 9 -7 0 -11 -35 -12 -92z"/>
<path d="M8575 2070 c3 -5 8 -10 11 -10 2 0 4 5 4 10 0 6 -5 10 -11 10 -5 0
-7 -4 -4 -10z"/>
<path d="M8631 1964 c0 -11 3 -14 6 -6 3 7 2 16 -1 19 -3 4 -6 -2 -5 -13z"/>
<path d="M7800 1957 c0 -23 38 -103 56 -118 27 -22 15 24 -21 81 -19 30 -35
46 -35 37z"/>
<path d="M4531 1884 c0 -11 3 -14 6 -6 3 7 2 16 -1 19 -3 4 -6 -2 -5 -13z"/>
<path d="M7807 1813 c-6 -31 0 -46 14 -38 12 8 12 65 0 65 -5 0 -11 -12 -14
-27z"/>
<path d="M7760 1752 c0 -7 -9 -12 -19 -12 -11 0 -22 -4 -25 -9 -9 -13 -84 -51
-104 -51 -16 -1 -16 -1 1 -11 22 -13 47 -5 83 26 16 14 34 25 40 25 15 0 39
29 30 37 -3 3 -6 1 -6 -5z"/>
<path d="M7304 1591 c-16 -9 -30 -19 -32 -23 -2 -5 -11 -8 -19 -8 -9 0 -14 -3
-11 -6 3 -3 -7 -19 -23 -37 -16 -17 -27 -37 -24 -44 2 -7 -3 -13 -12 -13 -9 0
-13 -3 -10 -6 4 -4 -3 -15 -15 -25 -25 -22 -11 -26 18 -4 10 8 26 15 35 15 9
0 22 6 29 14 6 8 18 12 26 9 8 -3 14 0 14 5 0 18 68 26 88 11 15 -13 16 -12 4
3 -11 14 -11 21 2 40 26 41 24 58 -10 73 -26 11 -35 10 -60 -4z"/>
<path d="M7546 1461 c-18 -19 -12 -51 9 -51 7 0 11 10 11 23 -1 12 2 28 7 35
15 20 -8 14 -27 -7z"/>
<path d="M7175 1140 c11 -5 34 -8 50 -8 l30 0 -30 8 c-16 4 -39 8 -50 8 l-20
1 20 -9z"/>
<path d="M6859 987 c-9 -7 -14 -16 -12 -22 2 -6 -20 -9 -56 -7 -56 3 -62 2
-90 -27 -17 -17 -28 -31 -24 -31 3 0 0 -7 -7 -15 -6 -8 -9 -19 -5 -26 6 -8 10
-7 16 2 6 9 29 14 69 14 59 0 61 -1 69 -30 l9 -30 1 27 c1 15 6 30 11 33 6 3
10 17 10 30 0 13 5 27 11 30 5 4 8 12 6 18 -2 7 0 20 5 30 10 20 9 21 -13 4z
m-86 -84 c-7 -2 -19 -2 -25 0 -7 3 -2 5 12 5 14 0 19 -2 13 -5z"/>
<path d="M6591 874 c-19 -14 -25 -14 -32 -3 -8 13 -10 12 -13 -12 0 -6 -10
-17 -20 -25 -19 -14 -19 -14 2 -14 13 0 25 7 28 15 3 8 22 19 42 26 45 14 64
29 36 29 -11 0 -30 -7 -43 -16z"/>
<path d="M6712 824 c-14 -15 -7 -17 22 -5 15 6 16 9 5 13 -8 3 -20 -1 -27 -8z"/>
<path d="M6580 820 c0 -5 4 -10 9 -10 6 0 13 5 16 10 3 6 -1 10 -9 10 -9 0
-16 -4 -16 -10z"/>
<path d="M6640 800 c0 -5 5 -10 11 -10 5 0 7 5 4 10 -3 6 -8 10 -11 10 -2 0
-4 -4 -4 -10z"/>
<path d="M6380 736 c0 -2 7 -9 15 -16 13 -11 14 -10 9 4 -5 14 -24 23 -24 12z"/>
<path d="M6790 732 c0 -7 -11 -12 -24 -12 -18 0 -25 -6 -28 -22 -2 -16 -9 -22
-22 -20 -15 3 -18 -1 -13 -17 4 -18 1 -21 -21 -19 -19 2 -26 -1 -24 -11 2 -8
-3 -11 -11 -8 -7 3 -19 -4 -26 -15 -9 -14 -20 -19 -38 -15 -20 4 -24 1 -20
-14 3 -12 0 -19 -9 -19 -8 0 -17 -7 -20 -15 -3 -8 -14 -17 -24 -20 -16 -5 -17
-10 -8 -31 10 -20 9 -27 -3 -35 -11 -7 -11 -9 4 -9 19 0 23 -15 7 -25 -5 -3
-10 -15 -10 -26 0 -44 -30 -12 -80 85 -14 26 -35 55 -47 63 -32 21 -30 42 4
35 21 -4 25 -2 20 12 -5 12 1 20 21 27 27 10 27 11 7 27 -11 9 -20 23 -20 30
0 7 -12 20 -26 29 -23 14 -29 14 -60 0 -49 -22 -77 -26 -83 -13 -3 8 -7 8 -13
-1 -13 -18 -91 -43 -111 -36 -15 6 -15 4 2 -15 21 -25 4 -31 -20 -8 -7 8 -22
13 -31 10 -108 -23 -207 -52 -248 -73 -58 -29 -68 -40 -53 -58 7 -9 7 -13 0
-13 -6 0 -14 5 -17 11 -5 6 -13 2 -22 -11 -19 -26 -14 -31 34 -35 48 -4 158
-36 200 -58 18 -10 45 -22 60 -28 28 -10 28 -10 -6 25 -19 20 -44 36 -54 36
-29 0 -127 50 -127 65 0 19 12 26 27 14 7 -6 24 -9 38 -7 14 3 25 1 25 -3 0
-5 9 -9 19 -9 11 0 23 -5 27 -11 3 -6 16 -8 29 -5 15 4 25 1 29 -9 6 -17 76
-21 76 -5 0 6 7 10 15 10 8 0 15 -4 15 -10 0 -5 5 -10 11 -10 22 0 41 -30 35
-55 -8 -30 9 -33 24 -6 5 11 29 42 52 68 33 38 48 48 72 48 33 0 66 -25 66
-50 0 -8 4 -15 9 -15 4 0 6 -11 3 -25 -5 -27 -34 -49 -47 -37 -5 4 -5 -1 -2
-10 3 -10 2 -20 -3 -23 -16 -10 -11 -45 5 -45 19 0 19 -24 1 -43 -11 -11 -12
-17 -3 -27 9 -10 9 -14 0 -17 -9 -3 -10 -9 -1 -23 9 -13 9 -22 1 -32 -6 -7
-14 -32 -18 -56 -4 -23 -11 -40 -16 -36 -5 3 -9 1 -9 -5 0 -5 -7 -16 -15 -25
-28 -28 -8 -46 51 -46 55 0 55 0 122 70 62 64 71 70 108 70 43 0 131 -27 192
-58 80 -42 170 -82 183 -82 8 1 -12 14 -44 30 -31 16 -76 42 -100 58 -23 16
-53 32 -67 35 -101 24 -182 46 -187 50 -3 4 28 75 70 159 92 187 119 248 142
313 9 28 21 58 27 68 5 11 7 22 4 25 -3 3 -6 0 -6 -6z m-567 -79 c-7 -2 -19
-2 -25 0 -7 3 -2 5 12 5 14 0 19 -2 13 -5z m-50 -20 c-7 -2 -19 -2 -25 0 -7 3
-2 5 12 5 14 0 19 -2 13 -5z"/>
<path d="M6471 514 c0 -11 3 -14 6 -6 3 7 2 16 -1 19 -3 4 -6 -2 -5 -13z"/>
<path d="M5247 451 c-48 -7 -63 -15 -94 -46 -28 -29 -33 -39 -22 -46 18 -11
22 -11 52 0 20 8 27 6 31 -6 7 -17 54 -10 69 10 6 8 7 6 3 -5 -6 -20 18 -25
30 -7 5 8 10 6 16 -5 5 -9 18 -16 29 -16 11 0 18 -4 15 -9 -3 -5 4 -11 15 -14
14 -4 20 -11 16 -20 -8 -21 3 -29 20 -16 7 6 13 8 13 4 0 -5 18 17 39 47 21
31 48 65 60 77 12 12 21 25 21 31 0 11 -4 12 -57 16 -164 11 -205 12 -256 5z"/>
<path d="M6080 342 c0 -9 31 -37 59 -52 30 -16 26 -4 -11 30 -33 30 -48 37
-48 22z"/>
<path d="M6299 324 c6 -3 8 -11 5 -19 -3 -7 0 -16 6 -20 8 -5 11 0 8 16 -1 12
-9 24 -16 25 -7 1 -8 0 -3 -2z"/>
</g>
</svg>
